<?xml version="1.0" standalone="no"?>
<!DOCTYPE svg PUBLIC "-//W3C//DTD SVG 20010904//EN"
 "http://www.w3.org/TR/2001/REC-SVG-20010904/DTD/svg10.dtd">
<svg version="1.0" xmlns="http://www.w3.org/2000/svg"
 width="483.000000pt" height="345.000000pt" viewBox="0 0 483.000000 345.000000"
 preserveAspectRatio="xMidYMid meet">
<metadata>
Created by potrace 1.13, written by Peter Selinger 2001-2015
</metadata>
<g transform="translate(0.000000,345.000000) scale(0.100000,-0.100000)"
fill="#424242" stroke="none">
<path d="M1140 3435 c-107 -30 -193 -107 -243 -215 -15 -34 -20 -67 -21 -133
l-1 -89 -65 7 c-222 24 -450 135 -615 301 l-73 72 -16 -36 c-38 -85 -37 -206
2 -296 12 -25 45 -71 74 -102 l53 -56 -40 7 c-22 4 -55 14 -74 21 -50 21 -54
19 -46 -28 24 -145 107 -246 243 -298 l47 -18 -48 -7 c-26 -4 -63 -5 -82 -2
-33 5 -34 5 -24 -21 41 -107 156 -201 270 -220 22 -4 41 -11 41 -16 1 -18
-126 -86 -207 -112 -58 -19 -112 -28 -195 -33 l-115 -6 70 -36 c335 -175 749
-158 1058 44 275 179 467 525 467 842 l0 72 92 92 c50 50 89 94 86 96 -3 3
-29 -3 -59 -13 -30 -11 -72 -22 -93 -26 l-39 -7 51 49 c45 44 99 128 89 138
-2 2 -29 -7 -59 -20 -30 -13 -78 -31 -107 -40 l-53 -16 -41 35 c-81 69 -221
99 -327 70z"/>
<path d="M1910 3293 c0 -61 -30 -121 -95 -191 l-53 -57 72 6 c223 18 447 -44
630 -175 l76 -55 0 173 0 173 -110 52 c-123 58 -251 94 -393 110 -136 15 -127
18 -127 -36z"/>
<path d="M2672 2498 l3 -723 725 0 725 0 3 723 2 722 -730 0 -730 0 2 -722z
m1018 471 l0 -89 -59 0 c-69 0 -118 -15 -131 -40 -6 -10 -10 -57 -10 -104 l0
-86 101 0 c91 0 100 -2 95 -17 -2 -10 -7 -43 -11 -73 -13 -119 -5 -110 -101
-110 l-84 0 0 -260 0 -260 -105 0 -105 0 0 260 0 260 -85 0 -85 0 0 100 0 100
85 0 85 0 0 98 c0 242 86 324 330 314 l80 -4 0 -89z"/>
<path d="M4260 2000 l0 -151 73 -72 c41 -40 86 -93 102 -120 137 -237 101
-535 -88 -721 -84 -83 -146 -119 -253 -146 -72 -19 -112 -20 -552 -20 -428 0
-474 -2 -468 -16 3 -9 6 -72 6 -140 l0 -125 513 3 c496 4 514 5 585 26 389
119 641 474 619 872 -8 134 -27 211 -86 335 -55 116 -135 221 -224 292 -65 54
-167 117 -204 128 l-23 6 0 -151z"/>
<path d="M141 1853 c-184 -311 -168 -700 43 -1017 109 -164 269 -282 442 -326
69 -18 112 -20 386 -20 l308 0 0 140 0 140 -293 0 c-239 0 -304 3 -348 16
-210 61 -381 329 -382 599 0 50 5 115 12 145 21 89 84 209 146 278 l57 62 -44
0 c-36 0 -106 13 -259 46 -25 6 -31 0 -68 -63z"/>
<path d="M1615 1341 c-11 -5 -33 -23 -50 -41 l-30 -31 0 -589 0 -590 38 -37
37 -38 578 -3 c562 -2 578 -2 610 18 18 11 41 34 52 52 20 32 20 48 18 610
l-3 578 -38 37 -37 38 -578 2 c-317 1 -586 -2 -597 -6z m1099 -123 c11 -15 16
-45 16 -93 0 -106 -9 -115 -120 -115 -115 0 -120 4 -120 115 0 111 5 115 120
115 80 0 90 -2 104 -22z m-381 -301 c156 -92 184 -301 57 -427 -127 -128 -335
-99 -428 58 -24 41 -27 57 -27 133 0 78 3 90 30 134 60 97 138 137 251 132 55
-3 82 -10 117 -30z m-537 -129 c-50 -185 42 -391 214 -478 123 -62 257 -62
380 0 171 86 264 294 214 478 -6 22 -5 23 57 20 l64 -3 0 -312 c0 -243 -3
-315 -13 -325 -10 -10 -118 -14 -507 -16 -485 -2 -495 -2 -515 18 -19 19 -20
32 -20 323 0 167 3 307 7 310 3 4 33 7 66 7 57 0 59 -1 53 -22z"/>
</g>
</svg>
