<?xml version="1.0" standalone="no"?>
<!DOCTYPE svg PUBLIC "-//W3C//DTD SVG 20010904//EN"
 "http://www.w3.org/TR/2001/REC-SVG-20010904/DTD/svg10.dtd">
<svg version="1.0" xmlns="http://www.w3.org/2000/svg"
 width="1124.000000pt" height="345.000000pt" viewBox="0 0 1124.000000 345.000000"
 preserveAspectRatio="xMidYMid meet">
<metadata>
Created by potrace 1.13, written by Peter Selinger 2001-2015
</metadata>
<g transform="translate(0.000000,345.000000) scale(0.100000,-0.100000)"
fill="#000000" stroke="none">
<path d="M0 1725 l0 -1725 5620 0 5620 0 0 1725 0 1725 -4867 -1 c-4222 0
-4861 -2 -4815 -15 65 -17 102 -36 146 -74 l33 -30 53 16 c30 9 78 27 108 40
30 13 57 22 59 20 10 -10 -44 -94 -89 -138 l-51 -49 39 7 c21 4 63 15 93 26
30 10 56 16 59 13 3 -2 -36 -46 -86 -96 l-92 -92 0 -72 c0 -245 -122 -526
-308 -713 -190 -190 -443 -292 -725 -292 -182 0 -335 37 -492 119 l-70 36 115
6 c83 5 137 14 195 33 81 26 208 94 207 112 0 5 -19 12 -41 16 -114 19 -229
113 -270 220 -10 26 -9 26 24 21 19 -3 56 -2 82 2 l48 7 -47 18 c-136 52 -219
153 -243 298 -8 47 -4 49 46 28 19 -7 52 -17 74 -21 l40 -7 -53 56 c-29 31
-62 77 -74 102 -39 90 -40 211 -2 296 l16 36 73 -72 c165 -166 393 -277 615
-301 l65 -7 1 89 c1 66 6 99 21 133 50 109 137 186 243 214 50 13 -12 15 -657
15 l-713 1 0 -1725z m2267 1604 c142 -16 270 -52 393 -110 l110 -52 0 -173 0
-173 -76 55 c-183 131 -407 193 -630 175 l-72 -6 53 57 c65 70 95 130 95 191
0 54 -9 51 127 36z m2091 -831 l-3 -723 -725 0 -725 0 -3 723 -2 722 730 0
730 0 -2 -722z m4782 -85 l0 -307 38 36 c161 158 406 169 551 26 89 -89 132
-220 132 -404 0 -349 -171 -553 -454 -542 -109 4 -163 26 -232 95 l-45 45 0
-44 c0 -24 -7 -54 -16 -66 -13 -19 -24 -22 -85 -22 l-69 0 0 745 0 745 90 0
90 0 0 -307z m-2428 0 l3 -178 148 -3 147 -3 0 -64 0 -65 -151 0 -150 0 3
-327 c4 -360 5 -370 63 -398 46 -21 74 -19 131 10 27 14 54 23 60 21 6 -2 24
-26 39 -52 l28 -48 -29 -23 c-80 -64 -243 -87 -334 -46 -55 24 -105 79 -119
130 -7 23 -11 174 -11 386 l0 347 -69 0 c-85 0 -103 13 -99 74 l3 41 82 9 c95
10 83 -12 109 196 19 155 27 170 100 170 l44 0 2 -177z m-697 -154 c71 -13
149 -47 192 -83 l33 -28 -31 -44 c-16 -24 -34 -44 -40 -44 -5 0 -40 14 -77 32
-131 63 -293 47 -342 -34 -28 -46 -27 -108 4 -141 32 -34 72 -54 194 -93 214
-70 287 -128 305 -247 7 -45 -9 -139 -30 -180 -100 -194 -417 -242 -643 -97
-28 18 -50 35 -50 40 0 4 14 26 30 48 35 48 65 54 111 22 97 -70 233 -86 324
-39 60 31 88 74 89 140 1 79 -48 117 -224 172 -174 54 -261 115 -290 202 -16
49 -9 160 14 207 65 134 241 202 431 167z m1721 -4 l35 -14 -7 -68 c-4 -37
-11 -73 -16 -80 -6 -8 -32 -10 -82 -6 -41 3 -89 3 -109 -1 -50 -9 -120 -76
-156 -148 l-31 -61 0 -324 0 -323 -90 0 -90 0 0 510 0 510 69 0 c45 0 73 -4
78 -12 4 -7 13 -50 18 -96 l10 -83 42 64 c67 102 138 145 241 146 29 1 68 -6
88 -14z m664 5 c123 -23 223 -95 279 -200 50 -93 77 -252 51 -301 -10 -18 -25
-19 -366 -19 l-356 0 7 -52 c17 -136 65 -229 142 -278 66 -42 114 -53 210 -48
73 4 92 9 177 51 52 26 101 44 109 41 9 -3 28 -24 43 -46 l29 -41 -35 -29
c-88 -75 -223 -118 -366 -118 -244 0 -410 130 -470 370 -20 78 -22 235 -5 310
61 258 293 409 551 360z m2241 -4 c229 -49 369 -245 369 -516 0 -318 -189
-521 -484 -520 -156 1 -255 37 -347 129 -97 97 -139 217 -140 393 0 175 39
285 137 388 111 117 286 164 465 126z m-6046 -153 c154 -90 269 -216 346 -378
59 -124 78 -201 86 -335 22 -398 -230 -753 -619 -872 -71 -21 -89 -22 -585
-26 l-513 -3 0 125 c0 68 -3 131 -6 140 -6 14 40 16 468 16 440 0 480 1 552
20 107 27 169 63 253 146 189 186 225 484 88 721 -16 27 -61 80 -102 120 l-73
72 0 151 0 151 23 -6 c12 -4 49 -23 82 -42z m-4035 -213 c52 -11 115 -20 138
-20 l44 0 -57 -62 c-62 -69 -125 -189 -146 -278 -7 -30 -12 -95 -12 -145 1
-270 172 -538 382 -599 44 -13 109 -16 348 -16 l293 0 0 -140 0 -140 -308 0
c-274 0 -317 2 -386 20 -173 44 -333 162 -442 326 -211 317 -227 706 -43 1017
37 63 43 69 68 63 14 -3 69 -15 121 -26z m2497 -583 l38 -37 3 -578 c2 -562 2
-578 -18 -610 -11 -18 -34 -41 -52 -52 -32 -20 -48 -20 -610 -18 l-578 3 -37
38 -38 37 0 590 0 589 30 31 c17 18 39 36 50 41 11 4 280 7 597 6 l578 -2 37
-38z m4323 -482 l0 -205 -25 0 -25 0 0 205 0 205 25 0 25 0 0 -205z m1630 0
l0 -205 -25 0 c-15 0 -25 6 -25 15 0 12 -6 11 -32 -5 -88 -53 -178 13 -178
130 0 110 88 184 179 152 l31 -11 0 65 c0 62 1 64 25 64 l25 0 0 -205z m340
130 l0 -75 33 20 c62 38 125 20 157 -45 38 -78 21 -167 -41 -219 -30 -25 -38
-28 -84 -22 -27 4 -65 6 -82 6 l-33 -1 0 206 0 205 25 0 c24 0 25 -2 25 -75z
m1410 -130 l0 -205 -25 0 c-15 0 -25 6 -25 15 0 12 -6 11 -32 -5 -88 -53 -178
13 -178 130 0 110 88 184 179 152 l31 -11 0 65 c0 62 1 64 25 64 l25 0 0 -205z
m-3850 160 c0 -20 -5 -25 -25 -25 -20 0 -25 5 -25 25 0 20 5 25 25 25 20 0 25
-5 25 -25z m810 -35 l0 -40 50 0 c43 0 50 -3 50 -20 0 -17 -7 -20 -50 -20
l-50 0 0 -93 c0 -114 10 -133 64 -124 34 5 37 4 34 -16 -3 -25 -31 -32 -84
-22 -50 9 -64 44 -64 160 0 78 -3 95 -15 95 -8 0 -15 9 -15 20 0 11 7 20 15
20 11 0 15 11 15 40 0 36 3 40 25 40 23 0 25 -4 25 -40z m-1587 -41 c32 -8 37
-14 37 -38 l0 -29 -37 19 c-62 32 -133 20 -133 -21 0 -25 34 -46 89 -55 49 -8
91 -42 91 -74 0 -79 -87 -120 -192 -90 -33 9 -38 14 -38 40 l0 29 40 -20 c71
-36 146 -18 138 34 -2 16 -16 24 -64 37 -81 22 -103 35 -110 66 -21 81 69 133
179 102z m293 -4 c25 -10 40 -26 54 -57 39 -86 12 -196 -54 -223 -75 -32 -146
-9 -176 57 -25 55 -25 111 0 166 30 66 101 89 176 57z m333 4 c25 -9 31 -16
31 -40 l0 -29 -32 20 c-44 27 -81 25 -115 -4 -25 -22 -28 -30 -28 -91 0 -61 3
-69 28 -91 34 -29 71 -31 115 -4 l32 20 0 -29 c0 -24 -6 -31 -31 -40 -67 -23
-141 -5 -173 44 -10 15 -20 51 -23 80 -13 125 81 204 196 164z m444 -17 c20
-20 22 -34 25 -147 l4 -125 -26 0 c-16 0 -26 6 -26 15 0 12 -6 11 -32 -5 -18
-11 -48 -20 -66 -20 -45 0 -92 46 -92 90 0 65 36 93 133 105 63 8 74 26 37 60
-20 18 -79 18 -122 0 -14 -6 -18 -2 -18 18 0 30 19 36 103 33 44 -2 63 -7 80
-24z m1088 12 c34 -17 59 -66 59 -114 l0 -30 -105 0 c-116 0 -120 -3 -90 -61
27 -50 85 -62 148 -30 l37 19 0 -28 c0 -24 -6 -29 -45 -40 -110 -31 -205 35
-205 142 0 119 104 193 201 142z m346 -8 c28 -24 28 -26 31 -150 l4 -126 -26
0 -26 0 0 108 c0 81 -4 113 -16 130 -18 27 -55 29 -95 5 l-29 -17 0 -113 0
-113 -25 0 -25 0 0 145 0 145 25 0 c15 0 25 -6 25 -15 0 -12 6 -11 33 5 44 27
89 26 124 -4z m1179 9 c25 -10 40 -26 54 -57 39 -86 12 -196 -54 -223 -75 -32
-146 -9 -176 57 -25 55 -25 111 0 166 30 66 101 89 176 57z m347 -13 c20 -20
22 -34 25 -147 l4 -125 -26 0 c-16 0 -26 6 -26 15 0 12 -6 11 -32 -5 -18 -11
-48 -20 -66 -20 -45 0 -92 46 -92 90 0 65 36 93 133 105 63 8 74 26 37 60 -20
18 -79 18 -122 0 -14 -6 -18 -2 -18 18 0 30 19 36 103 33 44 -2 63 -7 80 -24z
m-3253 -127 l0 -145 -25 0 -25 0 0 145 0 145 25 0 25 0 0 -145z m1020 126 c0
-18 1 -18 37 0 21 10 50 19 65 19 23 0 28 -4 28 -25 0 -22 -4 -25 -35 -25 -20
0 -49 -7 -65 -15 l-30 -16 0 -104 0 -105 -25 0 -25 0 0 145 0 145 25 0 c18 0
25 -5 25 -19z m2410 0 c0 -18 1 -18 37 0 21 10 50 19 65 19 23 0 28 -4 28 -25
0 -22 -4 -25 -35 -25 -20 0 -49 -7 -65 -15 l-30 -16 0 -104 0 -105 -25 0 -25
0 0 145 0 145 25 0 c18 0 25 -5 25 -19z"/>
<path d="M3717 3058 c-98 -14 -165 -71 -192 -162 -9 -29 -15 -90 -15 -148 l0
-98 -85 0 -85 0 0 -100 0 -100 85 0 85 0 0 -260 0 -260 105 0 105 0 0 260 0
260 84 0 c96 0 88 -9 101 110 4 30 9 63 11 73 5 15 -4 17 -95 17 l-101 0 0 86
c0 47 4 94 10 104 13 25 62 40 131 40 l59 0 0 89 0 89 -80 4 c-43 2 -99 0
-123 -4z"/>
<path d="M9357 2120 c-61 -11 -122 -47 -175 -104 l-42 -46 0 -248 0 -248 38
-36 c55 -55 114 -78 198 -78 100 0 154 21 209 82 56 62 84 147 92 274 10 155
-22 277 -88 343 -55 56 -137 77 -232 61z"/>
<path d="M8243 2130 c-112 -23 -196 -117 -218 -243 l-7 -37 278 2 279 3 -3 45
c-8 95 -67 182 -148 216 -44 18 -129 25 -181 14z"/>
<path d="M10440 2117 c-140 -40 -207 -143 -217 -337 -12 -212 59 -362 189
-406 69 -23 197 -16 254 14 112 58 160 180 152 388 -4 103 -8 127 -32 180 -32
70 -84 126 -139 149 -53 22 -152 28 -207 12z"/>
<path d="M2736 1224 c-12 -11 -16 -36 -16 -99 0 -111 5 -115 120 -115 111 0
120 9 120 115 0 106 -9 115 -120 115 -67 0 -92 -4 -104 -16z"/>
<path d="M2336 936 c-54 -20 -106 -65 -141 -121 -27 -44 -30 -56 -30 -134 0
-76 3 -92 27 -133 93 -157 301 -186 428 -58 127 126 99 335 -57 427 -56 32
-166 42 -227 19z"/>
<path d="M1907 803 c-4 -3 -7 -143 -7 -310 0 -291 1 -304 20 -323 20 -20 30
-20 515 -18 389 2 497 6 507 16 10 10 13 82 13 325 l0 312 -64 3 c-62 3 -63 2
-57 -20 50 -184 -43 -392 -214 -478 -123 -62 -257 -62 -380 0 -172 87 -264
293 -214 478 6 21 4 22 -53 22 -33 0 -63 -3 -66 -7z"/>
<path d="M8833 856 c-26 -22 -28 -30 -28 -96 0 -63 3 -74 24 -91 28 -23 62
-24 101 -4 30 16 30 16 30 109 0 89 -1 94 -22 100 -44 11 -77 6 -105 -18z"/>
<path d="M9383 865 l-33 -14 0 -90 c0 -79 2 -92 19 -101 33 -17 78 -11 108 14
26 22 28 30 28 96 0 63 -3 74 -24 91 -27 22 -54 23 -98 4z"/>
<path d="M10583 856 c-26 -22 -28 -30 -28 -96 0 -63 3 -74 24 -91 28 -23 62
-24 101 -4 30 16 30 16 30 109 0 89 -1 94 -22 100 -44 11 -77 6 -105 -18z"/>
<path d="M6313 856 c-25 -22 -28 -30 -28 -91 0 -61 3 -69 28 -91 15 -13 39
-24 52 -24 13 0 37 11 52 24 25 22 28 30 28 91 0 61 -3 69 -28 91 -15 13 -39
24 -52 24 -13 0 -37 -11 -52 -24z"/>
<path d="M7097 760 c-40 -12 -57 -29 -57 -56 0 -50 53 -68 110 -39 26 14 30
21 30 60 0 43 -1 45 -27 44 -16 0 -41 -5 -56 -9z"/>
<path d="M8179 867 c-15 -11 -39 -49 -39 -61 0 -3 36 -6 80 -6 88 0 96 7 59
54 -22 29 -71 35 -100 13z"/>
<path d="M9703 856 c-25 -22 -28 -30 -28 -91 0 -61 3 -69 28 -91 15 -13 39
-24 52 -24 13 0 37 11 52 24 25 22 28 30 28 91 0 61 -3 69 -28 91 -15 13 -39
24 -52 24 -13 0 -37 -11 -52 -24z"/>
<path d="M10057 760 c-40 -12 -57 -29 -57 -56 0 -50 53 -68 110 -39 26 14 30
21 30 60 0 43 -1 45 -27 44 -16 0 -41 -5 -56 -9z"/>
</g>
</svg>
