<?xml version="1.0" standalone="no"?>
<!DOCTYPE svg PUBLIC "-//W3C//DTD SVG 20010904//EN"
 "http://www.w3.org/TR/2001/REC-SVG-20010904/DTD/svg10.dtd">
<svg version="1.0" xmlns="http://www.w3.org/2000/svg"
 width="1124.000000pt" height="345.000000pt" viewBox="0 0 1124.000000 345.000000"
 preserveAspectRatio="xMidYMid meet">
<metadata>
Created by potrace 1.13, written by Peter Selinger 2001-2015
</metadata>
<g transform="translate(0.000000,345.000000) scale(0.100000,-0.100000)"
fill="#424242" stroke="none">
<path d="M1370 3435 c-107 -30 -193 -107 -243 -215 -15 -34 -20 -67 -21 -133
l-1 -89 -65 7 c-222 24 -450 135 -615 301 l-73 72 -16 -36 c-38 -85 -37 -206
2 -296 12 -25 45 -71 74 -102 l53 -56 -40 7 c-22 4 -55 14 -74 21 -50 21 -54
19 -46 -28 24 -145 107 -246 243 -298 l47 -18 -48 -7 c-26 -4 -63 -5 -82 -2
-33 5 -34 5 -24 -21 41 -107 156 -201 270 -220 22 -4 41 -11 41 -16 1 -18
-126 -86 -207 -112 -58 -19 -112 -28 -195 -33 l-115 -6 70 -36 c335 -175 749
-158 1058 44 275 179 467 525 467 842 l0 72 92 92 c50 50 89 94 86 96 -3 3
-29 -3 -59 -13 -30 -11 -72 -22 -93 -26 l-39 -7 51 49 c45 44 99 128 89 138
-2 2 -29 -7 -59 -20 -30 -13 -78 -31 -107 -40 l-53 -16 -41 35 c-81 69 -221
99 -327 70z"/>
<path d="M2140 3293 c0 -61 -30 -121 -95 -191 l-53 -57 72 6 c223 18 447 -44
630 -175 l76 -55 0 173 0 173 -110 52 c-123 58 -251 94 -393 110 -136 15 -127
18 -127 -36z"/>
<path d="M2902 2498 l3 -723 725 0 725 0 3 723 2 722 -730 0 -730 0 2 -722z
m1018 471 l0 -89 -59 0 c-69 0 -118 -15 -131 -40 -6 -10 -10 -57 -10 -104 l0
-86 101 0 c91 0 100 -2 95 -17 -2 -10 -7 -43 -11 -73 -13 -119 -5 -110 -101
-110 l-84 0 0 -260 0 -260 -105 0 -105 0 0 260 0 260 -85 0 -85 0 0 100 0 100
85 0 85 0 0 98 c0 242 86 324 330 314 l80 -4 0 -89z"/>
<path d="M8960 1975 l0 -745 69 0 c61 0 72 3 85 22 9 12 16 42 16 66 l0 44 45
-45 c69 -69 123 -91 232 -95 283 -11 454 193 454 542 0 184 -43 315 -132 404
-145 143 -390 132 -551 -26 l-38 -36 0 307 0 307 -90 0 -90 0 0 -745z m565
130 c42 -17 95 -72 116 -120 45 -103 50 -298 10 -427 -15 -47 -34 -81 -66
-116 -55 -61 -109 -82 -209 -82 -84 0 -143 23 -198 78 l-38 36 0 248 0 248 42
46 c53 57 114 93 175 104 55 9 124 3 168 -15z"/>
<path d="M6602 2573 c-16 -15 -23 -43 -36 -153 -26 -208 -14 -186 -109 -196
l-82 -9 -3 -41 c-4 -61 14 -74 99 -74 l69 0 0 -347 c0 -212 4 -363 11 -386 14
-51 64 -106 119 -130 91 -41 254 -18 334 46 l29 23 -28 48 c-15 26 -33 50 -39
52 -6 2 -33 -7 -60 -21 -57 -29 -85 -31 -131 -10 -58 28 -59 38 -63 398 l-3
327 150 0 151 0 0 65 0 64 -147 3 -148 3 -3 178 -2 177 -44 0 c-27 0 -51 -7
-64 -17z"/>
<path d="M5805 2256 c-101 -25 -183 -86 -221 -164 -23 -47 -30 -158 -14 -207
29 -87 116 -148 290 -202 176 -55 225 -93 224 -172 -1 -66 -29 -109 -89 -140
-91 -47 -227 -31 -324 39 -46 32 -76 26 -111 -22 -16 -22 -30 -44 -30 -48 0
-5 22 -22 50 -40 226 -145 543 -97 643 97 21 41 37 135 30 180 -18 119 -91
177 -305 247 -122 39 -162 59 -194 93 -31 33 -32 95 -4 141 49 81 211 97 342
34 37 -18 72 -32 77 -32 6 0 24 20 40 44 l31 44 -33 28 c-92 78 -269 113 -402
80z"/>
<path d="M7558 2255 c-59 -22 -105 -62 -151 -132 l-42 -64 -10 83 c-5 46 -14
89 -18 96 -5 8 -33 12 -78 12 l-69 0 0 -510 0 -510 90 0 90 0 0 323 0 324 31
61 c36 72 106 139 156 148 20 4 68 4 109 1 50 -4 76 -2 82 6 5 7 12 43 16 80
l7 68 -35 14 c-44 18 -129 18 -178 0z"/>
<path d="M8193 2255 c-170 -37 -300 -172 -344 -355 -17 -75 -15 -232 5 -310
60 -240 226 -370 470 -370 143 0 278 43 366 118 l35 29 -29 41 c-15 22 -34 43
-43 46 -8 3 -57 -15 -109 -41 -85 -42 -104 -47 -177 -51 -96 -5 -144 6 -210
48 -77 49 -125 142 -142 278 l-7 52 356 0 c341 0 356 1 366 19 26 49 -1 208
-51 301 -88 165 -276 241 -486 195z m231 -139 c81 -34 140 -121 148 -216 l3
-45 -279 -3 -278 -2 7 37 c16 91 78 183 147 219 67 35 182 39 252 10z"/>
<path d="M10397 2254 c-90 -21 -162 -62 -221 -124 -98 -103 -137 -213 -137
-388 1 -176 43 -296 140 -393 92 -92 191 -128 347 -129 295 -1 484 202 484
520 0 271 -140 467 -369 516 -82 17 -168 17 -244 -2z m250 -149 c55 -23 107
-79 139 -149 24 -53 28 -77 32 -180 8 -208 -40 -330 -152 -388 -57 -30 -185
-37 -254 -14 -130 44 -201 194 -189 406 10 194 77 297 217 337 55 16 154 10
207 -12z"/>
<path d="M4490 2000 l0 -151 73 -72 c41 -40 86 -93 102 -120 137 -237 101
-535 -88 -721 -84 -83 -146 -119 -253 -146 -72 -19 -112 -20 -552 -20 -428 0
-474 -2 -468 -16 3 -9 6 -72 6 -140 l0 -125 513 3 c496 4 514 5 585 26 389
119 641 474 619 872 -8 134 -27 211 -86 335 -55 116 -135 221 -224 292 -65 54
-167 117 -204 128 l-23 6 0 -151z"/>
<path d="M371 1853 c-184 -311 -168 -700 43 -1017 109 -164 269 -282 442 -326
69 -18 112 -20 386 -20 l308 0 0 140 0 140 -293 0 c-239 0 -304 3 -348 16
-210 61 -381 329 -382 599 0 50 5 115 12 145 21 89 84 209 146 278 l57 62 -44
0 c-36 0 -106 13 -259 46 -25 6 -31 0 -68 -63z"/>
<path d="M1845 1341 c-11 -5 -33 -23 -50 -41 l-30 -31 0 -589 0 -590 38 -37
37 -38 578 -3 c562 -2 578 -2 610 18 18 11 41 34 52 52 20 32 20 48 18 610
l-3 578 -38 37 -37 38 -578 2 c-317 1 -586 -2 -597 -6z m1099 -123 c11 -15 16
-45 16 -93 0 -106 -9 -115 -120 -115 -115 0 -120 4 -120 115 0 111 5 115 120
115 80 0 90 -2 104 -22z m-381 -301 c156 -92 184 -301 57 -427 -127 -128 -335
-99 -428 58 -24 41 -27 57 -27 133 0 78 3 90 30 134 60 97 138 137 251 132 55
-3 82 -10 117 -30z m-537 -129 c-50 -185 42 -391 214 -478 123 -62 257 -62
380 0 171 86 264 294 214 478 -6 22 -5 23 57 20 l64 -3 0 -312 c0 -243 -3
-315 -13 -325 -10 -10 -118 -14 -507 -16 -485 -2 -495 -2 -515 18 -19 19 -20
32 -20 323 0 167 3 307 7 310 3 4 33 7 66 7 57 0 59 -1 53 -22z"/>
<path d="M7330 825 l0 -205 25 0 25 0 0 205 0 205 -25 0 -25 0 0 -205z"/>
<path d="M8960 966 l0 -65 -31 11 c-91 32 -179 -42 -179 -152 0 -117 90 -183
178 -130 26 16 32 17 32 5 0 -9 10 -15 25 -15 l25 0 0 205 0 205 -25 0 c-24 0
-25 -2 -25 -64z m-22 -92 c21 -6 22 -11 22 -100 0 -93 0 -93 -30 -109 -39 -20
-73 -19 -101 4 -21 17 -24 28 -24 91 0 66 2 74 28 96 28 24 61 29 105 18z"/>
<path d="M9300 825 l0 -206 33 1 c17 0 55 -2 82 -6 46 -6 54 -3 84 22 62 52
79 141 41 219 -32 65 -95 83 -157 45 l-33 -20 0 75 c0 73 -1 75 -25 75 l-25 0
0 -205z m181 36 c21 -17 24 -28 24 -91 0 -66 -2 -74 -28 -96 -30 -25 -75 -31
-108 -14 -17 9 -19 22 -19 101 l0 90 33 14 c44 19 71 18 98 -4z"/>
<path d="M10710 966 l0 -65 -31 11 c-91 32 -179 -42 -179 -152 0 -117 90 -183
178 -130 26 16 32 17 32 5 0 -9 10 -15 25 -15 l25 0 0 205 0 205 -25 0 c-24 0
-25 -2 -25 -64z m-22 -92 c21 -6 22 -11 22 -100 0 -93 0 -93 -30 -109 -39 -20
-73 -19 -101 4 -21 17 -24 28 -24 91 0 66 2 74 28 96 28 24 61 29 105 18z"/>
<path d="M6860 985 c0 -20 5 -25 25 -25 20 0 25 5 25 25 0 20 -5 25 -25 25
-20 0 -25 -5 -25 -25z"/>
<path d="M7670 950 c0 -29 -4 -40 -15 -40 -8 0 -15 -9 -15 -20 0 -11 7 -20 15
-20 12 0 15 -17 15 -95 0 -116 14 -151 64 -160 53 -10 81 -3 84 22 3 20 0 21
-34 16 -54 -9 -64 10 -64 124 l0 93 50 0 c43 0 50 3 50 20 0 17 -7 20 -50 20
l-50 0 0 40 c0 36 -2 40 -25 40 -22 0 -25 -4 -25 -40z"/>
<path d="M6000 902 c-39 -19 -56 -55 -46 -95 7 -31 29 -44 110 -66 48 -13 62
-21 64 -37 8 -52 -67 -70 -138 -34 l-40 20 0 -29 c0 -26 5 -31 38 -40 105 -30
192 11 192 90 0 32 -42 66 -91 74 -55 9 -89 30 -89 55 0 41 71 53 133 21 l37
-19 0 29 c0 24 -5 30 -37 38 -54 15 -93 13 -133 -7z"/>
<path d="M6302 905 c-94 -41 -93 -241 2 -280 75 -32 146 -9 176 57 25 55 25
111 0 166 -30 66 -104 89 -178 57z m115 -49 c25 -22 28 -30 28 -91 0 -61 -3
-69 -28 -91 -15 -13 -39 -24 -52 -24 -13 0 -37 11 -52 24 -25 22 -28 30 -28
91 0 61 3 69 28 91 15 13 39 24 52 24 13 0 37 -11 52 -24z"/>
<path d="M6633 904 c-48 -24 -77 -91 -70 -159 3 -29 13 -65 23 -80 32 -49 106
-67 173 -44 25 9 31 16 31 40 l0 29 -32 -20 c-44 -27 -81 -25 -115 4 -25 22
-28 30 -28 91 0 61 3 69 28 91 34 29 71 31 115 4 l32 -20 0 29 c0 24 -6 31
-31 40 -44 15 -88 13 -126 -5z"/>
<path d="M7043 913 c-17 -3 -23 -12 -23 -30 0 -20 4 -24 18 -18 43 18 102 18
122 0 37 -34 26 -52 -37 -60 -97 -12 -133 -40 -133 -105 0 -44 47 -90 92 -90
18 0 48 9 66 20 26 16 32 17 32 5 0 -9 10 -15 26 -15 l26 0 -4 125 c-4 153
-13 167 -105 171 -32 1 -68 0 -80 -3z m137 -188 c0 -39 -4 -46 -30 -60 -57
-29 -110 -11 -110 39 0 37 46 63 113 65 26 1 27 -1 27 -44z"/>
<path d="M8175 910 c-73 -30 -107 -142 -67 -219 34 -68 104 -94 187 -71 39 11
45 16 45 40 l0 28 -37 -19 c-63 -32 -121 -20 -148 30 -30 58 -26 61 90 61
l105 0 0 30 c0 96 -88 156 -175 120z m104 -56 c37 -47 29 -54 -59 -54 -44 0
-80 3 -80 6 0 12 24 50 39 61 29 22 78 16 100 -13z"/>
<path d="M8513 900 c-27 -16 -33 -17 -33 -5 0 9 -10 15 -25 15 l-25 0 0 -145
0 -145 25 0 25 0 0 113 0 113 29 17 c40 24 77 22 95 -5 12 -17 16 -49 16 -130
l0 -108 26 0 26 0 -4 126 c-3 124 -3 126 -31 150 -35 30 -80 31 -124 4z"/>
<path d="M9692 905 c-94 -41 -93 -241 2 -280 75 -32 146 -9 176 57 25 55 25
111 0 166 -30 66 -104 89 -178 57z m115 -49 c25 -22 28 -30 28 -91 0 -61 -3
-69 -28 -91 -15 -13 -39 -24 -52 -24 -13 0 -37 11 -52 24 -25 22 -28 30 -28
91 0 61 3 69 28 91 15 13 39 24 52 24 13 0 37 -11 52 -24z"/>
<path d="M10003 913 c-17 -3 -23 -12 -23 -30 0 -20 4 -24 18 -18 43 18 102 18
122 0 37 -34 26 -52 -37 -60 -97 -12 -133 -40 -133 -105 0 -44 47 -90 92 -90
18 0 48 9 66 20 26 16 32 17 32 5 0 -9 10 -15 26 -15 l26 0 -4 125 c-4 153
-13 167 -105 171 -32 1 -68 0 -80 -3z m137 -188 c0 -39 -4 -46 -30 -60 -57
-29 -110 -11 -110 39 0 37 46 63 113 65 26 1 27 -1 27 -44z"/>
<path d="M6860 765 l0 -145 25 0 25 0 0 145 0 145 -25 0 -25 0 0 -145z"/>
<path d="M7880 765 l0 -145 25 0 25 0 0 105 0 104 30 16 c16 8 45 15 65 15 31
0 35 3 35 25 0 21 -5 25 -28 25 -15 0 -44 -9 -65 -19 -36 -18 -37 -18 -37 0 0
14 -7 19 -25 19 l-25 0 0 -145z"/>
<path d="M10290 765 l0 -145 25 0 25 0 0 105 0 104 30 16 c16 8 45 15 65 15
31 0 35 3 35 25 0 21 -5 25 -28 25 -15 0 -44 -9 -65 -19 -36 -18 -37 -18 -37
0 0 14 -7 19 -25 19 l-25 0 0 -145z"/>
</g>
</svg>
